<?xml version="1.0" encoding="UTF-8"?>
<svg id="Camada_2" data-name="Camada 2" xmlns="http://www.w3.org/2000/svg" xmlns:xlink="http://www.w3.org/1999/xlink" viewBox="0 0 747.25 505.93">
  <defs>
    <style>
      .cls-1 {
        fill: #fff;
      }

      .cls-2 {
        fill: url(#Gradiente_sem_nome_1728);
      }

      .cls-3 {
        fill: none;
      }

      .cls-4 {
        fill: #f8c34f;
      }
    </style>
    <linearGradient id="Gradiente_sem_nome_1728" data-name="Gradiente sem nome 1728" x1="0" y1="252.97" x2="747.25" y2="252.97" gradientUnits="userSpaceOnUse">
      <stop offset="0" stop-color="#00000d"/>
      <stop offset="1" stop-color="#003362"/>
    </linearGradient>
  </defs>
  <g id="Camada_1-2" data-name="Camada 1">
    <g>
      <g>
        <path class="cls-2" d="M726.49,113.88L382.99,1.49c-3.04-1-6.2-1.49-9.37-1.49s-6.32.5-9.37,1.49L20.75,113.88c-12.38,4.05-20.75,15.6-20.75,28.63s8.37,24.58,20.75,28.63l72.21,23.63v130.09c0,16.71,11.22,31.61,27.26,36.21l242.92,69.93c3.4.99,6.93,1.49,10.48,1.49s7.08-.5,10.42-1.47l98.08-28.24c-.07,1.1-.11,2.2-.11,3.31v69.72c0,16.64,13.49,30.12,30.12,30.12h66.47c16.63,0,30.12-13.49,30.12-30.12v-69.72c0-13.74-5.18-26.29-13.68-35.82l31.95-9.2c16.06-4.61,27.28-19.51,27.28-36.22v-130.09l72.21-23.63c12.38-4.05,20.75-15.6,20.75-28.63s-8.37-24.58-20.75-28.63Z"/>
        <path class="cls-3" d="M381.19,254.9v129.86l156.63-45.09v-135.48l-4.6-1.51-152.49,49.89c.24.74.47,1.5.47,2.32Z"/>
        <path class="cls-3" d="M552.94,198.71v136.6l56.09-16.15v-141.28l-56.47,18.48c.24.75.38,1.54.38,2.36Z"/>
        <path class="cls-3" d="M138.21,177.88v141.28l227.85,65.6v-129.86c0-.82.23-1.58.47-2.32l-164.66-53.87-63.66-20.83Z"/>
        <path class="cls-1" d="M609.03,177.88v141.28l-56.09,16.15v-136.6c0-.82-.13-1.61-.38-2.36l-19.35,6.33,4.6,1.51v135.48l-156.63,45.09v-129.86c0-.82-.23-1.58-.47-2.32l-7.1,2.32-7.09-2.32c-.24.74-.47,1.5-.47,2.32v129.86l-227.85-65.6v-141.28l-14.66-4.8c-.24.74-.47,1.5-.47,2.32v149.45c0,3.37,2.23,6.34,5.47,7.27l242.98,69.95c.69.2,1.39.3,2.09.3s1.4-.1,2.09-.3l162.1-46.67v26.94h15.13v-31.29l65.75-18.93c3.24-.93,5.47-3.9,5.47-7.27v-149.45c0-.82-.23-1.58-.47-2.32l-14.66,4.8Z"/>
        <path class="cls-4" d="M226.34,148.5l25.99,11.04c2.92,1.24,7.71,1.27,10.69.07l11.54-4.64,68.37,29.93c16.88,7.04,44.6,7.14,61.78.25l81.01-32.31c17.29-6.85,17.59-18.19.68-25.3l-67.03-29.53,12.31-4.86c2.98-1.17,3.03-3.13.11-4.37l-27.33-11.6c-2.92-1.24-7.71-1.29-10.69-.12l-64.13,25.4c-2.98,1.18-3.03,3.16-.11,4.4l26.07,11.07c2.92,1.24,7.71,1.28,10.69.09l12.47-4.96,53.19,23.71c3.15,1.32,3.09,3.44-.12,4.72l-52.91,21.1c-3.2,1.28-8.34,1.25-11.49-.05l-52.6-23.46,12.32-4.93c2.98-1.19,3.03-3.16.11-4.4l-26.31-11.17c-3.13-1.33-8.28-1.38-11.48-.1l-63.01,25.28c-3.2,1.29-3.25,3.42-.12,4.75ZM229.55,145.06l63.01-25.28c1.46-.58,3.81-.56,5.24.05l26.31,11.17c1.21.51,1.19,1.33-.05,1.83l-13.21,5.28c-1.22.49-1.26,1.29-.11,1.8l53.49,23.86c4.86,2.04,12.82,2.09,17.77.11l52.91-21.1c4.96-1.97,5.04-5.22.18-7.27l-54-24.07c-1.2-.54-3.24-.57-4.5-.07l-13.41,5.33c-1.24.49-3.23.48-4.44-.04l-26.07-11.07c-1.21-.52-1.19-1.33.05-1.83l64.13-25.4c1.24-.49,3.23-.47,4.44.05l27.33,11.6c1.21.51,1.19,1.33-.05,1.82l-13.2,5.21c-1.22.48-1.26,1.28-.09,1.8l67.91,29.92c15.27,6.41,15.01,16.59-.58,22.77l-81.01,32.31c-15.49,6.21-40.33,6.12-55.55-.23l-69.19-30.3c-1.21-.53-3.23-.55-4.48-.05l-12.46,5.02c-1.24.5-3.23.49-4.44-.03l-25.99-11.04c-1.43-.61-1.41-1.58.05-2.17Z"/>
        <path class="cls-4" d="M201.87,198.7l164.66,53.87,7.09,2.32,7.1-2.32,152.49-49.89,19.35-6.33,56.47-18.48,14.66-4.8,93.44-30.57-171.75-56.2-171.75-56.19-171.75,56.19L30.12,142.51l93.43,30.57,14.66,4.8,63.66,20.83ZM222.34,141.99l63.01-25.28c5.52-2.2,14.4-2.12,19.8.18l26.31,11.17c5.19,2.2,5.1,5.71-.2,7.82l-8.23,3.29,48.62,21.68c.88.34,2.28.34,3.15,0l52.91-21.1c.89-.36.91-.94.03-1.31l-49.19-21.92-8.15,3.24c-5.29,2.11-13.82,2.03-19.01-.17l-26.07-11.07c-5.19-2.21-5.1-5.72.2-7.82l64.13-25.4c5.29-2.09,13.82-1.99,19.01.22l27.33,11.6c5.19,2.2,5.1,5.68-.2,7.77l-8.19,3.23,63.05,27.77c19.13,8.06,18.77,20.9-.81,28.66l-81.01,32.31c-19.49,7.82-50.94,7.71-70.09-.28l-64.34-28.16-7.26,2.92c-5.29,2.13-13.82,2.08-19.01-.12l-25.99-11.04c-5.4-2.3-5.31-5.98.2-8.2Z"/>
        <path class="cls-4" d="M535.89,382.34c-13.11,0-23.75,10.63-23.75,23.75v69.72h66.47v-69.72c0-13.12-10.63-23.75-23.75-23.75h-18.97Z"/>
        <path class="cls-1" d="M222.14,150.19l25.99,11.04c5.19,2.2,13.71,2.25,19.01.12l7.26-2.92,64.34,28.16c19.16,7.99,50.6,8.1,70.09.28l81.01-32.31c19.58-7.76,19.94-20.6.81-28.66l-63.05-27.77,8.19-3.23c5.29-2.09,5.38-5.57.2-7.77l-27.33-11.6c-5.19-2.21-13.71-2.3-19.01-.22l-64.13,25.4c-5.29,2.11-5.38,5.62-.2,7.82l26.07,11.07c5.19,2.2,13.71,2.27,19.01.17l8.15-3.24,49.19,21.92c.88.37.86.96-.03,1.31l-52.91,21.1c-.87.35-2.27.35-3.15,0l-48.62-21.68,8.23-3.29c5.29-2.12,5.38-5.62.2-7.82l-26.31-11.17c-5.4-2.3-14.29-2.38-19.8-.18l-63.01,25.28c-5.52,2.22-5.61,5.9-.2,8.2ZM226.46,143.75l63.01-25.28c3.2-1.28,8.35-1.23,11.48.1l26.31,11.17c2.92,1.24,2.87,3.21-.11,4.4l-12.32,4.93,52.6,23.46c3.15,1.31,8.29,1.33,11.49.05l52.91-21.1c3.21-1.28,3.27-3.39.12-4.72l-53.19-23.71-12.47,4.96c-2.98,1.18-7.77,1.14-10.69-.09l-26.07-11.07c-2.92-1.24-2.87-3.21.11-4.4l64.13-25.4c2.98-1.17,7.77-1.12,10.69.12l27.33,11.6c2.92,1.24,2.87,3.2-.11,4.37l-12.31,4.86,67.03,29.53c16.91,7.11,16.61,18.44-.68,25.3l-81.01,32.31c-17.18,6.89-44.9,6.79-61.78-.25l-68.37-29.93-11.54,4.64c-2.98,1.2-7.77,1.17-10.69-.07l-25.99-11.04c-3.13-1.33-3.08-3.47.12-4.75Z"/>
        <path class="cls-1" d="M229.5,147.23l25.99,11.04c1.21.51,3.2.53,4.44.03l12.46-5.02c1.26-.5,3.28-.48,4.48.05l69.19,30.3c15.22,6.35,40.06,6.44,55.55.23l81.01-32.31c15.59-6.18,15.84-16.36.58-22.77l-67.91-29.92c-1.17-.52-1.13-1.32.09-1.8l13.2-5.21c1.24-.49,1.26-1.3.05-1.82l-27.33-11.6c-1.21-.52-3.2-.54-4.44-.05l-64.13,25.4c-1.24.49-1.26,1.31-.05,1.83l26.07,11.07c1.21.51,3.2.53,4.44.04l13.41-5.33c1.26-.5,3.3-.47,4.5.07l54,24.07c4.86,2.04,4.78,5.3-.18,7.27l-52.91,21.1c-4.96,1.98-12.92,1.94-17.77-.11l-53.49-23.86c-1.16-.52-1.11-1.32.11-1.8l13.21-5.28c1.24-.5,1.26-1.31.05-1.83l-26.31-11.17c-1.43-.61-3.78-.63-5.24-.05l-63.01,25.28c-1.46.59-1.49,1.56-.05,2.17Z"/>
      </g>
      <g>
        <path class="cls-3" d="M381.19,254.9v129.86l156.63-45.09v-135.48l-4.6-1.51-152.49,49.89c.24.74.47,1.5.47,2.32Z"/>
        <path class="cls-3" d="M552.94,198.71v136.6l56.09-16.15v-141.28l-56.47,18.48c.24.75.38,1.54.38,2.36Z"/>
        <path class="cls-3" d="M138.21,177.88v141.28l227.85,65.6v-129.86c0-.82.23-1.58.47-2.32l-164.66-53.87-63.66-20.83Z"/>
        <path class="cls-1" d="M609.03,177.88v141.28l-56.09,16.15v-136.6c0-.82-.13-1.61-.38-2.36l-19.35,6.33,4.6,1.51v135.48l-156.63,45.09v-129.86c0-.82-.23-1.58-.47-2.32l-7.1,2.32-7.09-2.32c-.24.74-.47,1.5-.47,2.32v129.86l-227.85-65.6v-141.28l-14.66-4.8c-.24.74-.47,1.5-.47,2.32v149.45c0,3.37,2.23,6.34,5.47,7.27l242.98,69.95c.69.2,1.39.3,2.09.3s1.4-.1,2.09-.3l162.1-46.67v26.94h15.13v-31.29l65.75-18.93c3.24-.93,5.47-3.9,5.47-7.27v-149.45c0-.82-.23-1.58-.47-2.32l-14.66,4.8Z"/>
        <path class="cls-4" d="M226.34,148.5l25.99,11.04c2.92,1.24,7.71,1.27,10.69.07l11.54-4.64,68.37,29.93c16.88,7.04,44.6,7.14,61.78.25l81.01-32.31c17.29-6.85,17.59-18.19.68-25.3l-67.03-29.53,12.31-4.86c2.98-1.17,3.03-3.13.11-4.37l-27.33-11.6c-2.92-1.24-7.71-1.29-10.69-.12l-64.13,25.4c-2.98,1.18-3.03,3.16-.11,4.4l26.07,11.07c2.92,1.24,7.71,1.28,10.69.09l12.47-4.96,53.19,23.71c3.15,1.32,3.09,3.44-.12,4.72l-52.91,21.1c-3.2,1.28-8.34,1.25-11.49-.05l-52.6-23.46,12.32-4.93c2.98-1.19,3.03-3.16.11-4.4l-26.31-11.17c-3.13-1.33-8.28-1.38-11.48-.1l-63.01,25.28c-3.2,1.29-3.25,3.42-.12,4.75ZM229.55,145.06l63.01-25.28c1.46-.58,3.81-.56,5.24.05l26.31,11.17c1.21.51,1.19,1.33-.05,1.83l-13.21,5.28c-1.22.49-1.26,1.29-.11,1.8l53.49,23.86c4.86,2.04,12.82,2.09,17.77.11l52.91-21.1c4.96-1.97,5.04-5.22.18-7.27l-54-24.07c-1.2-.54-3.24-.57-4.5-.07l-13.41,5.33c-1.24.49-3.23.48-4.44-.04l-26.07-11.07c-1.21-.52-1.19-1.33.05-1.83l64.13-25.4c1.24-.49,3.23-.47,4.44.05l27.33,11.6c1.21.51,1.19,1.33-.05,1.82l-13.2,5.21c-1.22.48-1.26,1.28-.09,1.8l67.91,29.92c15.27,6.41,15.01,16.59-.58,22.77l-81.01,32.31c-15.49,6.21-40.33,6.12-55.55-.23l-69.19-30.3c-1.21-.53-3.23-.55-4.48-.05l-12.46,5.02c-1.24.5-3.23.49-4.44-.03l-25.99-11.04c-1.43-.61-1.41-1.58.05-2.17Z"/>
        <path class="cls-4" d="M201.87,198.7l164.66,53.87,7.09,2.32,7.1-2.32,152.49-49.89,19.35-6.33,56.47-18.48,14.66-4.8,93.44-30.57-171.75-56.2-171.75-56.19-171.75,56.19L30.12,142.51l93.43,30.57,14.66,4.8,63.66,20.83ZM222.34,141.99l63.01-25.28c5.52-2.2,14.4-2.12,19.8.18l26.31,11.17c5.19,2.2,5.1,5.71-.2,7.82l-8.23,3.29,48.62,21.68c.88.34,2.28.34,3.15,0l52.91-21.1c.89-.36.91-.94.03-1.31l-49.19-21.92-8.15,3.24c-5.29,2.11-13.82,2.03-19.01-.17l-26.07-11.07c-5.19-2.21-5.1-5.72.2-7.82l64.13-25.4c5.29-2.09,13.82-1.99,19.01.22l27.33,11.6c5.19,2.2,5.1,5.68-.2,7.77l-8.19,3.23,63.05,27.77c19.13,8.06,18.77,20.9-.81,28.66l-81.01,32.31c-19.49,7.82-50.94,7.71-70.09-.28l-64.34-28.16-7.26,2.92c-5.29,2.13-13.82,2.08-19.01-.12l-25.99-11.04c-5.4-2.3-5.31-5.98.2-8.2Z"/>
        <path class="cls-4" d="M535.89,382.34c-13.11,0-23.75,10.63-23.75,23.75v69.72h66.47v-69.72c0-13.12-10.63-23.75-23.75-23.75h-18.97Z"/>
        <path class="cls-1" d="M222.14,150.19l25.99,11.04c5.19,2.2,13.71,2.25,19.01.12l7.26-2.92,64.34,28.16c19.16,7.99,50.6,8.1,70.09.28l81.01-32.31c19.58-7.76,19.94-20.6.81-28.66l-63.05-27.77,8.19-3.23c5.29-2.09,5.38-5.57.2-7.77l-27.33-11.6c-5.19-2.21-13.71-2.3-19.01-.22l-64.13,25.4c-5.29,2.11-5.38,5.62-.2,7.82l26.07,11.07c5.19,2.2,13.71,2.27,19.01.17l8.15-3.24,49.19,21.92c.88.37.86.96-.03,1.31l-52.91,21.1c-.87.35-2.27.35-3.15,0l-48.62-21.68,8.23-3.29c5.29-2.12,5.38-5.62.2-7.82l-26.31-11.17c-5.4-2.3-14.29-2.38-19.8-.18l-63.01,25.28c-5.52,2.22-5.61,5.9-.2,8.2ZM226.46,143.75l63.01-25.28c3.2-1.28,8.35-1.23,11.48.1l26.31,11.17c2.92,1.24,2.87,3.21-.11,4.4l-12.32,4.93,52.6,23.46c3.15,1.31,8.29,1.33,11.49.05l52.91-21.1c3.21-1.28,3.27-3.39.12-4.72l-53.19-23.71-12.47,4.96c-2.98,1.18-7.77,1.14-10.69-.09l-26.07-11.07c-2.92-1.24-2.87-3.21.11-4.4l64.13-25.4c2.98-1.17,7.77-1.12,10.69.12l27.33,11.6c2.92,1.24,2.87,3.2-.11,4.37l-12.31,4.86,67.03,29.53c16.91,7.11,16.61,18.44-.68,25.3l-81.01,32.31c-17.18,6.89-44.9,6.79-61.78-.25l-68.37-29.93-11.54,4.64c-2.98,1.2-7.77,1.17-10.69-.07l-25.99-11.04c-3.13-1.33-3.08-3.47.12-4.75Z"/>
        <path class="cls-1" d="M229.5,147.23l25.99,11.04c1.21.51,3.2.53,4.44.03l12.46-5.02c1.26-.5,3.28-.48,4.48.05l69.19,30.3c15.22,6.35,40.06,6.44,55.55.23l81.01-32.31c15.59-6.18,15.84-16.36.58-22.77l-67.91-29.92c-1.17-.52-1.13-1.32.09-1.8l13.2-5.21c1.24-.49,1.26-1.3.05-1.82l-27.33-11.6c-1.21-.52-3.2-.54-4.44-.05l-64.13,25.4c-1.24.49-1.26,1.31-.05,1.83l26.07,11.07c1.21.51,3.2.53,4.44.04l13.41-5.33c1.26-.5,3.3-.47,4.5.07l54,24.07c4.86,2.04,4.78,5.3-.18,7.27l-52.91,21.1c-4.96,1.98-12.92,1.94-17.77-.11l-53.49-23.86c-1.16-.52-1.11-1.32.11-1.8l13.21-5.28c1.24-.5,1.26-1.31.05-1.83l-26.31-11.17c-1.43-.61-3.78-.63-5.24-.05l-63.01,25.28c-1.46.59-1.49,1.56-.05,2.17Z"/>
      </g>
    </g>
  </g>
</svg>