<?xml version="1.0" encoding="UTF-8"?>
<svg id="Camada_2" data-name="Camada 2" xmlns="http://www.w3.org/2000/svg" xmlns:xlink="http://www.w3.org/1999/xlink" viewBox="0 0 621.54 761.76">
  <defs>
    <style>
      .cls-1 {
        fill: #fff;
      }

      .cls-2 {
        fill: url(#Gradiente_sem_nome_1728);
      }

      .cls-3 {
        fill: none;
      }

      .cls-4 {
        fill: #f8c34f;
      }
    </style>
    <linearGradient id="Gradiente_sem_nome_1728" data-name="Gradiente sem nome 1728" x1="193.65" y1="714.86" x2="352.92" y2="114.07" gradientUnits="userSpaceOnUse">
      <stop offset="0" stop-color="#00000d"/>
      <stop offset="1" stop-color="#003362"/>
    </linearGradient>
  </defs>
  <g id="Camada_1-2" data-name="Camada 1">
    <g>
      <path class="cls-2" d="M621.54,166.26c0-6.03-1.4-11.97-4.08-17.37-2.5-5.03-8.37-16.81-22.63-23.9-.37-.18-.74-.36-1.11-.53L334.81,5.74c-6.45-3.74-13.87-5.74-21.64-5.74-6.78,0-13.68,1.57-20.03,4.55L28.16,123.03c-.53.24-1.06.49-1.58.75C10.19,132.01,0,147.8,0,164.98c0,21.06,9.53,32.65,17.96,38.78l63.72,54.47v19.72c-35.77.92-64.6,30.28-64.6,66.27v72.57c0,29.07,19.11,53.76,45.43,62.16l-2.7,146.46c0,.28,0,.56,0,.84.24,74.72,61.22,135.51,135.94,135.51h221.55c74.81,0,135.85-60.76,136.25-135.52l3.15-143.52c28.38-7.06,49.47-32.76,49.47-63.3v-49.19c9.38-8.59,15.37-20.87,15.37-34.25v-159.52c0-1.5-.07-2.98-.22-4.46.22-2.45.22-4.43.22-5.74Z"/>
      <g>
        <path class="cls-3" d="M540.95,328.36h-175.39c-8.14,0-14.76,6.62-14.76,14.76v72.79c0,8.14,6.62,14.76,14.76,14.76h34.11l-4.15,152.74c0,8.78-7.15,15.93-15.93,15.93h-144.7c-8.75,0-15.87-7.09-15.93-15.82l4.15-151.09h33.7c8.14,0,14.76-6.62,14.76-14.76v-73.45c0-8.74-7.11-15.86-15.86-15.86H83.4c-8.74,0-15.86,7.11-15.86,15.86v72.57c0,8.14,6.62,14.76,14.76,14.76h31.56l-3.59,194.53c.15,46.99,38.5,85.21,85.48,85.21h221.55c47.28,0,85.74-38.43,85.8-85.7l4.2-191.42h33.66c8.14,0,14.76-6.62,14.76-14.76v-76.3c0-8.14-6.62-14.76-14.76-14.76ZM547.09,419.42c0,3.39-2.75,6.14-6.14,6.14h-36.09c-3.34,0-6.06,2.67-6.14,6l-4.25,193.94c0,42.62-34.55,77.17-77.17,77.17h-221.55c-42.35,0-76.73-34.26-76.86-76.62l3.64-196.88c.06-3.43-2.7-6.25-6.14-6.25h-34.09c-3.39,0-6.14-2.75-6.14-6.14v-72.57c0-3.99,3.24-7.23,7.23-7.23h172.32c3.99,0,7.23,3.24,7.23,7.23v73.45c0,3.39-2.75,6.14-6.14,6.14h-36.12c-3.32,0-6.04,2.65-6.14,5.97l-4.22,153.64c0,13.56,10.99,24.55,24.55,24.55h144.7c13.56,0,24.55-10.99,24.55-24.55l4.21-155.05c.09-3.45-2.68-6.31-6.14-6.31h-36.66c-3.39,0-6.14-2.75-6.14-6.14v-72.79c0-3.39,2.75-6.14,6.14-6.14h175.39c3.39,0,6.14,2.75,6.14,6.14v76.3Z"/>
        <path class="cls-3" d="M135.95,185.39v99.54c61.25-16.58,121.23-24.24,179.93-24.24s114.85,7.66,171,24.24v-40.77c-.82-2.17-.82-4.33,0-6.5v-45.89c-63.8-25.51-126.33-39.56-186.31-39.56-54.87,0-111.02,11.48-164.61,33.18Z"/>
        <path class="cls-3" d="M60.66,168.81l59.98,50.75v-39.27c0-2.55,2.55-6.38,5.1-7.65,57.42-24.26,117.4-37.01,176.1-37.01,63.81,0,130.16,14.03,197.79,42.11,2.55,1.27,5.11,3.83,5.11,7.65v34.09l53.59-50.67-246.28-112.3L60.66,168.81Z"/>
        <path class="cls-1" d="M540.95,316.86h-175.39c-14.48,0-26.26,11.78-26.26,26.26v72.79c0,14.48,11.78,26.26,26.26,26.26h22.3l-3.83,141.24c0,2.44-1.99,4.43-4.43,4.43h-144.7c-2.38,0-4.34-1.9-4.43-4.27l3.84-139.65h22.52c14.48,0,26.26-11.78,26.26-26.26v-73.45c0-15.08-12.27-27.36-27.35-27.36H83.4c-15.08,0-27.36,12.27-27.36,27.36v72.57c0,14.48,11.78,26.26,26.26,26.26h19.84l-3.38,183.07c.17,53.31,43.67,96.67,96.98,96.67h221.55c53.55,0,97.16-43.53,97.29-97.06l3.95-180.06h22.41c14.48,0,26.26-11.78,26.26-26.26v-76.3c0-14.48-11.78-26.26-26.26-26.26ZM555.71,419.42c0,8.14-6.62,14.76-14.76,14.76h-33.66l-4.2,191.42c-.05,47.26-38.52,85.7-85.8,85.7h-221.55c-46.99,0-85.34-38.23-85.48-85.21l3.59-194.53h-31.56c-8.14,0-14.76-6.62-14.76-14.76v-72.57c0-8.74,7.11-15.86,15.86-15.86h172.32c8.74,0,15.86,7.11,15.86,15.86v73.45c0,8.14-6.62,14.76-14.76,14.76h-33.7l-4.15,151.09c.06,8.74,7.18,15.82,15.93,15.82h144.7c8.78,0,15.93-7.15,15.93-15.93l4.15-152.74h-34.11c-8.14,0-14.76-6.62-14.76-14.76v-72.79c0-8.14,6.62-14.76,14.76-14.76h175.39c8.14,0,14.76,6.62,14.76,14.76v76.3Z"/>
        <path class="cls-1" d="M540.95,336.98h-175.39c-3.39,0-6.14,2.75-6.14,6.14v72.79c0,3.39,2.75,6.14,6.14,6.14h36.66c3.46,0,6.23,2.85,6.14,6.31l-4.21,155.05c0,13.56-10.99,24.55-24.55,24.55h-144.7c-13.56,0-24.55-10.99-24.55-24.55l4.22-153.64c.09-3.32,2.81-5.97,6.14-5.97h36.12c3.39,0,6.14-2.75,6.14-6.14v-73.45c0-3.99-3.24-7.23-7.23-7.23H83.4c-3.99,0-7.23,3.24-7.23,7.23v72.57c0,3.39,2.75,6.14,6.14,6.14h34.09c3.43,0,6.2,2.82,6.14,6.25l-3.64,196.88c.13,42.35,34.51,76.62,76.86,76.62h221.55c42.62,0,77.17-34.55,77.17-77.17l4.25-193.94c.07-3.34,2.8-6,6.14-6h36.09c3.39,0,6.14-2.75,6.14-6.14v-76.3c0-3.39-2.75-6.14-6.14-6.14Z"/>
        <path class="cls-4" d="M582.58,166.26c-1.28-2.56-2.55-5.11-5.1-6.38L315.88,39.92c-1.28-1.27-3.82-1.27-6.38,0L44.07,158.59c-2.55,1.28-5.11,3.83-5.11,6.38s0,6.38,2.56,7.66l79.12,67.63v54.87c0,2.55,0,5.1,2.55,6.38,1.28,1.27,3.83,1.27,5.11,1.27h3.82c63.81-17.86,126.33-26.79,186.31-26.79s118.68,8.93,176.11,26.79c1.28,0,3.82,0,6.38-1.27,2.56-1.28,3.83-3.83,3.83-6.38v-50.8l62.52-58.49v150.13c0,3.82,3.83,7.65,7.66,7.65s7.66-3.83,7.66-7.65v-159.52c0-1.4-.52-2.81-1.37-4.02,1.34-2.06,1.37-4.12,1.37-6.18ZM486.87,232.61v5.05c-.82,2.17-.82,4.33,0,6.5v40.77c-56.14-16.58-113.57-24.24-171-24.24s-118.68,7.66-179.93,24.24v-99.54c53.59-21.69,109.74-33.18,164.61-33.18,59.97,0,122.51,14.04,186.31,39.56v40.84ZM504.74,219.48v-34.09c0-3.82-2.56-6.38-5.11-7.65-67.63-28.07-133.99-42.11-197.79-42.11-58.7,0-118.68,12.75-176.1,37.01-2.55,1.27-5.1,5.1-5.1,7.65v39.27l-59.98-50.75,251.39-112.3,246.28,112.3-53.59,50.67Z"/>
      </g>
    </g>
  </g>
</svg>