<?xml version="1.0" encoding="UTF-8"?>
<svg id="Camada_2" data-name="Camada 2" xmlns="http://www.w3.org/2000/svg" viewBox="0 0 1912.81 668.82">
  <defs>
    <style>
      .cls-1 {
        fill: #fff;
      }
    </style>
  </defs>
  <g id="Camada_1-2" data-name="Camada 1">
    <g>
      <g>
        <g>
          <path class="cls-1" d="M1777.82,90.18v290.23h0c-34.14,0-61.81-27.67-61.81-61.81V97.07l20.07-12.23,8.49-5.18,6.64-4.04c.06-.04.13-.08.19-.12l.33-.2s0,0,.01,0c2.57-1.52,5.58-2.4,8.79-2.4,8.92,0,16.27,6.76,17.19,15.44.07.61.1,1.22.1,1.85Z"/>
          <path class="cls-1" d="M1733.69,4.29c19.34-11.79,44.14,2.13,44.14,24.78v54.99c0-8.61-5.21-16-12.65-19.2-2.53-1.09-5.32-1.7-8.25-1.7-3.55,0-6.9.89-9.83,2.46,0,0-.02,0-.02.01-.69.37-1.35.77-1.99,1.21,0,0-.02,0-.02.01l-.48.29-28.56,17.41-19.27,11.74-61.81,37.68-19.27,11.74-61.81,37.68-200.37,122.14c-29.26,17.83-67.2,11.24-88.71-15.43h0s289.08-176.22,289.08-176.22l61.81-37.68,19.27-11.74,61.81-37.68,19.27-11.74,17.67-10.77Z"/>
          <path class="cls-1" d="M1634.93,146.49v172.1c0,34.14,27.67,61.81,61.81,61.81h0V108.81"/>
          <path class="cls-1" d="M1615.66,158.24v222.17h0c-34.14,0-61.81-27.67-61.81-61.81v-122.68"/>
        </g>
        <g>
          <path class="cls-1" d="M1172.32,448.27h52.21v34.08h-52.21v118.92h-43.85v-173.67c0-32.23,26.24-57.03,58.47-57.03,33.84-.35,61.63,11.96,56.2,26.35l-10.25,21.27s-35.67-29.13-56.35-4.23c-8.7,10.48-4.21,34.32-4.21,34.32Z"/>
          <path class="cls-1" d="M1765.8,577.94s-.55-71.47-1.11-75.53c-.55-4.06,6.47-54.11-47.46-60.2-35.97-4.06-61.83,5.84-75.06,12.88-5.82,3.1-8.08,10.3-5.13,16.2l8.17,16.35s23.27-14.78,44.69-14.59c21.42.18,29.73,5.54,31.02,16.99v11.63s-48.94-7.3-79.6,19.76c-21.1,18.63-23.27,53,.18,71.84,23.45,18.83,66.67,12.55,82.55-5.91,0,0,3.14,14.41,15.33,15.89,12.19,1.48,32.69-2.96,32.69-2.96,0,0-5.91-9.78-6.28-22.34ZM1722.15,556.27c-2.15,23.7-64.67,30.41-52.94-10.83,6.83-24.01,52.94-20.44,52.94-20.44v31.27Z"/>
          <path class="cls-1" d="M1361.19,577.94s-.55-71.47-1.11-75.53c-.55-4.06,6.47-54.11-47.46-60.2-35.97-4.06-61.83,5.84-75.06,12.88-5.82,3.1-8.08,10.3-5.13,16.2l8.17,16.35s23.27-14.78,44.69-14.59c21.42.18,29.73,5.54,31.02,16.99v11.63s-48.94-7.3-79.6,19.76c-21.1,18.63-23.27,53,.18,71.84,23.45,18.83,66.67,12.55,82.55-5.91,0,0,3.14,14.41,15.33,15.89,12.19,1.48,32.69-2.96,32.69-2.96,0,0-5.91-9.78-6.28-22.34ZM1317.54,556.27c-2.15,23.7-64.67,30.41-52.94-10.83,6.83-24.01,52.94-20.44,52.94-20.44v31.27Z"/>
          <path class="cls-1" d="M1384.54,446.58v159.3h44.23l-.03-112.28c1.49-10.45,11.06-16.7,25.04-16.7,19.2,0,22.46,11.37,22.85,23.14l.25,105.48h45.23l-1.36-112.7c0-7.07,12.72-14.14,23.57-14.26,20.06-.36,22.18,9.18,23.2,16.86l.97,108.05h44.23v-112.65c.21-5.28.05-19.33-9.43-31.66-17.43-22.69-49.42-17.48-52.19-16.98-20.78,3.73-33.06,17.9-36.75,22.54-.56-1.42-1.46-3.42-2.88-5.61-12.33-18.97-41.43-17.91-43.77-17.79-4.47.22-18.28,1.11-30.94,11.07-4.91,3.86-8.2,7.96-10.27,10.94-1.13-4.99-3.28-8.24-4.96-10.21-7.57-8.91-22.14-11.31-36.98-6.53Z"/>
          <path class="cls-1" d="M1911.41,473.54c-2.56,6-5.13,11.99-7.69,17.99-1.05-1.18-18.38-20.09-41.57-15.83-22.37,4.1-35.29,27.09-35.29,47.26,0,15.19,7.49,47.61,43.51,47.61,16.62,0,28.4-11.75,31.42-14.99l8.39,17.33c3.76,7.77.55,17.09-7.17,20.95-11.32,5.66-28.1,9.83-47.14,9.83-51,0-76.54-40.54-74.69-84.61,1.54-36.45,18.37-64.05,62.36-75.17,24.71-6.24,46.22.61,59.65,7.32,8.21,4.1,11.84,13.86,8.23,22.3Z"/>
        </g>
      </g>
      <g>
        <path class="cls-1" d="M658.65,17.56h-152.52c-12.59,0-22.83,10.24-22.83,22.84v63.29c0,12.59,10.24,22.84,22.83,22.84h19.39l-3.33,122.82c0,2.12-1.73,3.85-3.86,3.85h-125.83c-2.07,0-3.78-1.65-3.85-3.71l3.34-121.44h19.58c12.59,0,22.83-10.24,22.83-22.84v-63.87c0-13.12-10.67-23.79-23.79-23.79h-149.85c-13.12,0-23.79,10.67-23.79,23.79v63.1c0,12.59,10.24,22.84,22.84,22.84h17.26l-2.94,159.2c.15,46.35,37.98,84.07,84.33,84.07h192.65c46.56,0,84.49-37.85,84.6-84.4l3.43-156.58h19.49c12.59,0,22.83-10.24,22.83-22.83V40.4c0-12.59-10.24-22.84-22.83-22.84ZM671.49,106.74c0,7.08-5.76,12.84-12.84,12.84h-29.27l-3.65,166.46c-.05,41.1-33.5,74.52-74.61,74.52h-192.65c-40.86,0-74.21-33.24-74.34-74.1l3.12-169.16h-27.44c-7.08,0-12.84-5.76-12.84-12.84v-63.1c0-7.6,6.19-13.79,13.79-13.79h149.85c7.6,0,13.79,6.19,13.79,13.79v63.87c0,7.08-5.76,12.84-12.84,12.84h-29.31l-3.61,131.38c.05,7.6,6.25,13.76,13.85,13.76h125.83c7.64,0,13.85-6.21,13.85-13.85l3.61-132.82h-29.66c-7.08,0-12.84-5.76-12.84-12.84v-63.29c0-7.08,5.76-12.84,12.84-12.84h152.52c7.08,0,12.84,5.76,12.84,12.84v66.35Z"/>
        <path class="cls-1" d="M658.65,35.06h-152.52c-2.95,0-5.34,2.39-5.34,5.34v63.29c0,2.95,2.39,5.34,5.34,5.34h31.88c3,0,5.42,2.48,5.34,5.48l-3.66,134.83c0,11.79-9.56,21.35-21.35,21.35h-125.83c-11.79,0-21.35-9.56-21.35-21.35l3.67-133.6c.08-2.89,2.45-5.19,5.34-5.19h31.41c2.95,0,5.34-2.39,5.34-5.34v-63.87c0-3.47-2.82-6.29-6.29-6.29h-149.85c-3.47,0-6.29,2.82-6.29,6.29v63.11c0,2.95,2.39,5.34,5.34,5.34h29.64c2.99,0,5.39,2.45,5.34,5.44l-3.16,171.2c.12,36.83,30.01,66.63,66.84,66.63h192.65c37.06,0,67.11-30.05,67.11-67.11l3.7-168.65c.06-2.9,2.43-5.22,5.34-5.22h31.38c2.95,0,5.34-2.39,5.34-5.34V40.4c0-2.95-2.39-5.34-5.34-5.34Z"/>
      </g>
      <g>
        <path class="cls-1" d="M0,494.81c0-26.17,0-55.02,0-55.02,0,0,7.24,0,15.23,0,11.53,0,20.89,9.35,20.89,20.88v84.32c0,17.21,14.26,31.09,31.61,30.48,16.53-.59,29.39-14.67,29.39-31.21v-82.59c0-12.57,10.19-22.77,22.77-22.77h14.37v98.63c0,37.45-30.67,67.74-68.26,67.11C29.18,604.05,0,573.25,0,536.44v-41.63Z"/>
        <path class="cls-1" d="M300.44,548.76c0,26.17,0,55.02,0,55.02,0,0-7.24,0-15.23,0-11.53,0-20.89-9.35-20.89-20.88v-84.32c0-17.21-14.26-31.09-31.61-30.48-16.53.59-29.39,14.67-29.39,31.21v82.59c0,12.57-10.19,22.77-22.77,22.77h-14.37v-98.63c0-37.45,30.67-67.74,68.26-67.11,36.81.61,65.99,31.4,65.99,68.22v41.63Z"/>
        <path class="cls-1" d="M625.09,457.26c-11.34-11.34-27.02-18.36-44.33-18.36-14.98,0-28.9,4.51-40.51,12.24-3.46-6.75-10.49-11.36-18.59-11.36h-15.23v229.03h36.16v-72.21c8.85,4.56,18.89,7.14,29.54,7.14,39.38,0,71.31-31.92,71.31-71.31v-30.85c0-17.31-7.01-32.99-18.36-44.33ZM608.53,536.61c0,20.44-16.57,37.02-37.02,37.02h-2.27c-14.73,0-26.69-11.95-26.69-26.69v-50.72c0-14.73,11.95-26.69,26.69-26.69h2.27c20.44,0,37.02,16.57,37.02,37.02v30.06Z"/>
        <path class="cls-1" d="M455.01,460.26c-13.21-13.18-31.44-21.36-51.58-21.36-40.28,0-72.93,32.66-72.93,72.93v21.02c0,40.28,32.66,72.93,72.93,72.93s72.93-32.66,72.93-72.93v-21.02c0-20.14-8.17-38.36-21.36-51.58ZM438.54,538.71c0,20.14-16.31,36.47-36.45,36.47s-36.47-16.33-36.47-36.47v-32.71c0-20.14,16.31-36.47,36.47-36.47,10.07,0,19.18,4.09,25.77,10.68,6.61,6.61,10.68,15.72,10.68,25.79v32.71Z"/>
        <path class="cls-1" d="M723.67,440.14c-69.17,4.42-45.74,44.42-45.74,44.42,10.61-2.65,79.77-38.67,79.77,10.91,0,0-73.15-3.17-89.51,37.71-16.34,40.89,11.72,63.65,29.18,66.96,17.46,3.32,41.55,4.42,62.98-13.04v1.62c0,8.02,6.5,14.52,14.52,14.52h15.55v-114.49c0-7.29,2.43-53.04-66.75-48.62ZM755.54,555.68c-5.03,11.5-16.81,16.39-28.66,17.4-9.34.8-20.92-1.04-25.7-10.21-.85-1.64-1.43-3.42-1.77-5.24-3.52-19.21,14-30.18,31.11-31.51,14.14-1.1,27.4-1.77,27.41-1.77.84,0,.71,11.34.72,12.29.06,6.51-.48,13.02-3.11,19.05Z"/>
        <path class="cls-1" d="M911.01,481.76l6.16-16.57c3.06-8.23,1.03-15.99-9.18-20.19-38.71-15.92-75.58,8.62-76.25,37.94-.73,32.12,0,120.3,0,120.3h33v-109.4s-3.41-25.05,26.52-20.04c0,0,12.08,2.06,19.74,7.96Z"/>
      </g>
    </g>
  </g>
</svg>